<?xml version="1.0" encoding="UTF-8" standalone="no"?>
<svg
   xmlns:dc="http://purl.org/dc/elements/1.1/"
   xmlns:cc="http://creativecommons.org/ns#"
   xmlns:rdf="http://www.w3.org/1999/02/22-rdf-syntax-ns#"
   xmlns:svg="http://www.w3.org/2000/svg"
   xmlns="http://www.w3.org/2000/svg"
   viewBox="0 0 1122.6667 1588"
   height="1588"
   width="1122.6667"
   xml:space="preserve"
   id="svg2"
   version="1.1"><metadata
     id="metadata8"><rdf:RDF><cc:Work
         rdf:about=""><dc:format>image/svg+xml</dc:format><dc:type
           rdf:resource="http://purl.org/dc/dcmitype/StillImage" /></cc:Work></rdf:RDF></metadata><defs
     id="defs6"><clipPath
       id="clipPath20"
       clipPathUnits="userSpaceOnUse"><path
         id="path18"
         d="M 0,1191 H 842 V 0 H 0 Z" /></clipPath></defs><g
     transform="matrix(1.3333333,0,0,-1.3333333,0,1588)"
     id="g10"><path
       id="path12"
       style="fill:#008a29;fill-opacity:1;fill-rule:nonzero;stroke:none"
       d="M 420.897,207.266 H 185.999 v 234.898 h 234.898 z" /><g
       id="g14"><g
         clip-path="url(#clipPath20)"
         id="g16"><g
           transform="translate(256.5249,393.0537)"
           id="g22"><path
             id="path24"
             style="fill:#231f20;fill-opacity:1;fill-rule:nonzero;stroke:none"
             d="m 0,0 c 17.593,-12.553 37.617,-29.531 58.448,-52.309 47.337,-51.76 61.697,-109.365 64.818,-124.662 h 32.29 V 40.293 H 5.772 C 6.229,36.829 6.715,31.8 6.669,26.298 6.601,18.11 5.366,7.628 0,0 m 114.255,-176.971 c -1.439,6.632 -4.592,19.107 -10.645,34.764 C 81.755,-85.669 40.397,-38.52 -9.148,-4.352 -22.753,5.031 -44.155,17.637 -61.709,23.548 V -176.971 Z M -7.255,5.024 c 6.035,8.566 5.754,24.884 4.159,35.269 H -61.709 V 32.752 C -54.086,30.28 -33.488,22.625 -7.255,5.024 M 164.373,-185.788 H -70.525 V 49.11 h 234.898 z" /></g><g
           transform="translate(479.3521,274.7471)"
           id="g26"><path
             id="path28"
             style="fill:#231f20;fill-opacity:1;fill-rule:evenodd;stroke:none"
             d="m 0,0 h 38.338 c 7.428,0 13.45,-6.217 13.45,-13.887 v -3.759 c 0,-7.67 -6.022,-13.887 -13.45,-13.887 H 0 c -7.428,0 -13.45,6.217 -13.45,13.887 v 3.759 C -13.45,-6.217 -7.428,0 0,0 m 3.538,-7.983 h 31.133 c 4.953,0 8.967,-3.425 8.967,-7.65 0,-4.225 -4.014,-7.651 -8.967,-7.651 H 3.538 c -4.953,0 -8.967,3.426 -8.967,7.651 0,4.225 4.014,7.65 8.967,7.65" /></g><g
           transform="translate(479.3521,274.7471)"
           id="g30"><path
             id="path32"
             style="fill:none;stroke:#231f20;stroke-width:1.12100005;stroke-linecap:square;stroke-linejoin:round;stroke-miterlimit:3.86400008;stroke-dasharray:none;stroke-opacity:1"
             d="m 0,0 h 38.338 c 7.428,0 13.45,-6.217 13.45,-13.887 v -3.759 c 0,-7.67 -6.022,-13.887 -13.45,-13.887 H 0 c -7.428,0 -13.45,6.217 -13.45,13.887 v 3.759 C -13.45,-6.217 -7.428,0 0,0 Z m 3.538,-7.983 h 31.133 c 4.953,0 8.967,-3.425 8.967,-7.65 0,-4.225 -4.014,-7.651 -8.967,-7.651 H 3.538 c -4.953,0 -8.967,3.426 -8.967,7.651 0,4.225 4.014,7.65 8.967,7.65 z" /></g><g
           transform="translate(534.3223,275.332)"
           id="g34"><path
             id="path36"
             style="fill:#231f20;fill-opacity:1;fill-rule:evenodd;stroke:none"
             d="m 0,0 v -68.282 h 8.372 c 0.129,0 0,30.021 0,30.261 0,0.24 1.495,0 1.495,0 l 8.372,-30.261 h 8.969 l -8.371,30.261 c 0,0 10.036,3.946 10.165,11.959 0.13,8.014 0,14.053 0,14.053 0,0 -0.428,12.009 -10.165,12.009 z m 8.671,-8.72 v -20.631 h 6.578 c 0.428,0 4.953,0.06 5.083,5.98 0.129,5.921 0,9.269 0,9.269 0,0 0.169,5.441 -4.186,5.382 -4.355,-0.059 -7.475,0 -7.475,0" /></g><g
           transform="translate(534.3223,275.332)"
           id="g38"><path
             id="path40"
             style="fill:none;stroke:#231f20;stroke-width:1.12100005;stroke-linecap:square;stroke-linejoin:miter;stroke-miterlimit:3.86400008;stroke-dasharray:none;stroke-opacity:1"
             d="m 0,0 v -68.282 h 8.372 c 0.129,0 0,30.021 0,30.261 0,0.24 1.495,0 1.495,0 l 8.372,-30.261 h 8.969 l -8.371,30.261 c 0,0 10.036,3.946 10.165,11.959 0.13,8.014 0,14.053 0,14.053 0,0 -0.428,12.009 -10.165,12.009 z m 8.671,-8.72 v -20.631 h 6.578 c 0.428,0 4.953,0.06 5.083,5.98 0.129,5.921 0,9.269 0,9.269 0,0 0.169,5.441 -4.186,5.382 -4.355,-0.059 -7.475,0 -7.475,0 z" /></g><g
           transform="translate(619.5073,275.332)"
           id="g42"><path
             id="path44"
             style="fill:#231f20;fill-opacity:1;fill-rule:evenodd;stroke:none"
             d="m 0,0 h 7.596 l 15.862,-68.301 h -8.69 l -6.47,29.019 -8.792,0.013 -5.534,-29.032 h -9.024 z M 3.979,-16.302 0.613,-31.785 h 6.715 z" /></g><g
           transform="translate(619.5073,275.332)"
           id="g46"><path
             id="path48"
             style="fill:none;stroke:#231f20;stroke-width:1.12100005;stroke-linecap:butt;stroke-linejoin:miter;stroke-miterlimit:3.86400008;stroke-dasharray:none;stroke-opacity:1"
             d="m 0,0 h 7.596 l 15.862,-68.301 h -8.69 l -6.47,29.019 -8.792,0.013 -5.534,-29.032 h -9.024 z M 3.979,-16.302 0.613,-31.785 h 6.715 z" /></g><g
           transform="translate(435.7681,275.3296)"
           id="g50"><path
             id="path52"
             style="fill:#231f20;fill-opacity:1;fill-rule:evenodd;stroke:none"
             d="m 0,0 0.041,-68.279 h 19.492 c 0,0 9.3,0.601 9.898,12.86 0.301,6.172 0,15.248 0,15.248 -0.228,3.071 -2.821,8.671 -5.98,8.671 0,0 3.329,1.613 3.757,7.235 0.429,5.621 0,13.454 0,13.454 0,0 -0.129,10.811 -7.773,10.811 z m 8.311,-8.793 0.061,-20.555 h 5.382 c 0.727,0 5.052,0.085 5.083,4.784 0.001,0.21 0,0 0,0 v 11.96 c 0,0 0.468,3.946 -4.186,3.887 -4.654,-0.059 -6.34,-0.076 -6.34,-0.076 M 8.46,-38.019 v -20.63 c 0,-0.059 8.284,0 8.284,0 0,0 4.638,-0.26 4.784,3.887 0.128,3.646 0.042,11.173 0.042,11.173 0,0 0.725,5.63 -4.528,5.57 -5.251,-0.059 -8.582,0 -8.582,0" /></g><g
           transform="translate(435.7681,275.3296)"
           id="g54"><path
             id="path56"
             style="fill:none;stroke:#231f20;stroke-width:1.12100005;stroke-linecap:square;stroke-linejoin:miter;stroke-miterlimit:3.86400008;stroke-dasharray:none;stroke-opacity:1"
             d="m 0,0 0.041,-68.279 h 19.492 c 0,0 9.3,0.601 9.898,12.86 0.301,6.172 0,15.248 0,15.248 -0.228,3.071 -2.821,8.671 -5.98,8.671 0,0 3.329,1.613 3.757,7.235 0.429,5.621 0,13.454 0,13.454 0,0 -0.129,10.811 -7.773,10.811 z m 8.311,-8.793 0.061,-20.555 h 5.382 c 0.727,0 5.052,0.085 5.083,4.784 0.001,0.21 0,0 0,0 v 11.96 c 0,0 0.468,3.946 -4.186,3.887 -4.654,-0.059 -6.34,-0.076 -6.34,-0.076 z M 8.46,-38.019 v -20.63 c 0,-0.059 8.284,0 8.284,0 0,0 4.638,-0.26 4.784,3.887 0.128,3.646 0.042,11.173 0.042,11.173 0,0 0.725,5.63 -4.528,5.57 -5.251,-0.059 -8.582,0 -8.582,0 z" /></g><g
           transform="translate(641.4385,275.3389)"
           id="g58"><path
             id="path60"
             style="fill:#231f20;fill-opacity:1;fill-rule:evenodd;stroke:none"
             d="M 0,0 C 1.318,-3.459 9.783,-27.12 9.783,-27.12 L 19.456,0 h 9.272 C 26.381,-5.201 14.143,-37.146 14.143,-37.146 L 14.102,-68.311 H 5.874 L 5.736,-37.3 c 0,0 -12.824,32.993 -14.276,37.3 z" /></g><g
           transform="translate(641.4385,275.3389)"
           id="g62"><path
             id="path64"
             style="fill:none;stroke:#231f20;stroke-width:1.12100005;stroke-linecap:butt;stroke-linejoin:miter;stroke-miterlimit:3.86400008;stroke-dasharray:none;stroke-opacity:1"
             d="M 0,0 C 1.318,-3.459 9.783,-27.12 9.783,-27.12 L 19.456,0 h 9.272 C 26.381,-5.201 14.143,-37.146 14.143,-37.146 L 14.102,-68.311 H 5.874 L 5.736,-37.3 c 0,0 -12.824,32.993 -14.276,37.3 z" /></g><g
           transform="translate(578.4014,275.332)"
           id="g66"><path
             id="path68"
             style="fill:#231f20;fill-opacity:1;fill-rule:evenodd;stroke:none"
             d="M 0,0 C 1.11,-3.137 14.115,-46.398 14.278,-47.205 14.447,-48.043 14.403,0 14.403,0 h 8.771 c 0,0 -0.288,-62.284 -0.331,-68.301 H 11.442 c -1.541,4.88 -14.805,46.472 -14.805,46.809 0,0.338 0.115,-41.862 0.02,-46.809 h -8.093 V 0 Z" /></g><g
           transform="translate(578.4014,275.332)"
           id="g70"><path
             id="path72"
             style="fill:none;stroke:#231f20;stroke-width:1.12100005;stroke-linecap:butt;stroke-linejoin:miter;stroke-miterlimit:3.86400008;stroke-dasharray:none;stroke-opacity:1"
             d="M 0,0 C 1.11,-3.137 14.115,-46.398 14.278,-47.205 14.447,-48.043 14.403,0 14.403,0 h 8.771 c 0,0 -0.288,-62.284 -0.331,-68.301 H 11.442 c -1.541,4.88 -14.805,46.472 -14.805,46.809 0,0.338 0.115,-41.862 0.02,-46.809 h -8.093 V 0 Z" /></g><g
           transform="translate(475.5566,291.6484)"
           id="g74"><path
             id="path76"
             style="fill:#231f20;fill-opacity:1;fill-rule:evenodd;stroke:none"
             d="M 0,0 C 0.41,-0.567 0.615,-1.246 0.616,-2.037 0.616,-2.851 0.41,-3.506 0,-4 c -0.229,-0.278 -0.567,-0.532 -1.014,-0.761 0.682,-0.247 1.195,-0.64 1.539,-1.177 0.35,-0.537 0.525,-1.188 0.525,-1.955 0,-0.791 -0.199,-1.5 -0.597,-2.127 -0.254,-0.416 -0.571,-0.767 -0.951,-1.05 -0.428,-0.326 -0.935,-0.549 -1.521,-0.67 -0.579,-0.12 -1.21,-0.181 -1.891,-0.181 H -9.957 V 1.421 h 6.481 C -1.84,1.397 -0.682,0.923 0,0 m -7.295,-6.046 v -3.558 h 3.276 c 0.585,0 1.041,0.079 1.367,0.236 0.591,0.289 0.887,0.845 0.887,1.665 0,0.694 -0.287,1.171 -0.86,1.431 -0.32,0.144 -0.769,0.219 -1.349,0.226 z m 0,5.15 v -2.942 h 3.276 c 0.585,0 1.059,0.109 1.421,0.326 0.369,0.223 0.552,0.616 0.553,1.177 0,0.621 -0.242,1.031 -0.725,1.231 -0.416,0.139 -0.947,0.208 -1.593,0.208 z" /></g><g
           transform="translate(487.8887,280.9224)"
           id="g78"><path
             id="path80"
             style="fill:#231f20;fill-opacity:1;fill-rule:evenodd;stroke:none"
             d="m 0,0 c -0.833,-1.026 -2.097,-1.539 -3.792,-1.539 -1.696,0 -2.96,0.513 -3.793,1.539 -0.833,1.032 -1.249,2.272 -1.249,3.72 0,1.424 0.416,2.658 1.249,3.702 0.833,1.044 2.097,1.566 3.793,1.566 C -2.097,8.988 -0.833,8.466 0,7.422 0.833,6.378 1.249,5.144 1.249,3.72 1.249,2.272 0.833,1.032 0,0 m -2.064,1.43 c 0.404,0.537 0.606,1.3 0.606,2.29 0,0.989 -0.202,1.75 -0.606,2.281 -0.404,0.537 -0.983,0.806 -1.738,0.806 -0.754,0 -1.337,-0.269 -1.747,-0.806 C -5.953,5.47 -6.155,4.709 -6.155,3.72 c 0,-0.99 0.202,-1.753 0.606,-2.29 0.41,-0.537 0.993,-0.805 1.747,-0.805 0.755,0 1.334,0.268 1.738,0.805" /></g><g
           transform="translate(497.3872,289.8203)"
           id="g82"><path
             id="path84"
             style="fill:#231f20;fill-opacity:1;fill-rule:evenodd;stroke:none"
             d="m 0,0 c 0.037,0 0.112,-0.003 0.227,-0.009 v -2.643 c -0.164,0.018 -0.309,0.03 -0.435,0.036 -0.127,0.006 -0.23,0.009 -0.308,0.009 -1.038,0 -1.735,-0.338 -2.091,-1.014 -0.199,-0.38 -0.298,-0.965 -0.298,-1.756 v -4.716 h -2.598 v 9.866 h 2.462 v -1.719 c 0.398,0.657 0.745,1.107 1.041,1.348 0.482,0.405 1.11,0.607 1.882,0.607 C -0.069,0.009 -0.03,0.006 0,0" /></g><g
           transform="translate(508.0176,289.0234)"
           id="g86"><path
             id="path88"
             style="fill:#231f20;fill-opacity:1;fill-rule:evenodd;stroke:none"
             d="m 0,0 c 0.652,-0.531 0.978,-1.415 0.978,-2.652 v -6.644 h -2.644 v 6.002 c 0,0.518 -0.069,0.917 -0.208,1.194 -0.253,0.507 -0.736,0.761 -1.448,0.761 -0.875,0 -1.475,-0.371 -1.801,-1.114 -0.169,-0.392 -0.253,-0.893 -0.253,-1.503 v -5.34 h -2.571 v 9.848 h 2.489 v -1.439 c 0.332,0.507 0.645,0.872 0.941,1.095 0.531,0.398 1.204,0.598 2.019,0.598 C -1.479,0.806 -0.646,0.537 0,0" /></g><g
           transform="translate(516.1768,285.729)"
           id="g90"><path
             id="path92"
             style="fill:#231f20;fill-opacity:1;fill-rule:evenodd;stroke:none"
             d="M 0,0 C 0.477,0.06 0.817,0.135 1.022,0.226 1.391,0.383 1.575,0.627 1.575,0.959 1.575,1.363 1.433,1.641 1.149,1.792 0.872,1.949 0.461,2.027 -0.082,2.027 -0.691,2.027 -1.123,1.876 -1.376,1.575 -1.557,1.352 -1.678,1.05 -1.738,0.669 h -2.489 c 0.054,0.863 0.295,1.573 0.724,2.128 C -2.821,3.666 -1.65,4.1 0.009,4.1 1.089,4.1 2.048,3.886 2.887,3.458 3.726,3.029 4.146,2.22 4.146,1.032 v -4.526 c 0,-0.314 0.005,-0.694 0.018,-1.14 0.018,-0.339 0.069,-0.568 0.153,-0.688 0.085,-0.121 0.211,-0.221 0.381,-0.299 v -0.38 H 1.892 C 1.813,-5.802 1.759,-5.615 1.729,-5.44 1.698,-5.265 1.674,-5.066 1.656,-4.843 1.3,-5.229 0.89,-5.558 0.425,-5.829 c -0.555,-0.32 -1.183,-0.48 -1.883,-0.48 -0.893,0 -1.632,0.253 -2.217,0.76 -0.579,0.513 -0.869,1.237 -0.869,2.173 0,1.212 0.467,2.09 1.403,2.634 0.513,0.295 1.267,0.506 2.263,0.633 z M 1.566,-1.204 C 1.403,-1.307 1.237,-1.391 1.068,-1.458 0.905,-1.518 0.679,-1.575 0.389,-1.629 L -0.19,-1.738 c -0.543,-0.097 -0.933,-0.215 -1.168,-0.353 -0.398,-0.236 -0.597,-0.6 -0.597,-1.096 0,-0.44 0.12,-0.76 0.362,-0.959 0.247,-0.193 0.546,-0.29 0.896,-0.29 0.555,0 1.065,0.164 1.53,0.489 0.47,0.326 0.715,0.921 0.733,1.783 z" /></g><g
           transform="translate(523.9375,277.8359)"
           id="g94"><path
             id="path96"
             style="fill:#231f20;fill-opacity:1;fill-rule:evenodd;stroke:none"
             d="M 0,0 0.326,-0.018 C 0.579,-0.03 0.82,-0.021 1.05,0.009 1.279,0.04 1.472,0.108 1.629,0.217 1.78,0.32 1.918,0.534 2.045,0.86 2.178,1.186 2.232,1.385 2.208,1.457 l -3.62,10.301 H 1.457 L 3.611,4.48 5.648,11.758 H 8.391 L 5.005,2.055 C 4.354,0.184 3.838,-0.975 3.458,-1.421 3.078,-1.874 2.317,-2.1 1.177,-2.1 c -0.23,0 -0.414,0.003 -0.552,0.009 -0.139,0 -0.348,0.009 -0.625,0.027 z" /></g><path
           id="path98"
           style="fill:#008a29;fill-opacity:1;fill-rule:nonzero;stroke:none"
           d="M 420.897,778.266 H 185.999 v 234.898 h 234.898 z" /><g
           transform="translate(256.5249,964.0537)"
           id="g100"><path
             id="path102"
             style="fill:#231f20;fill-opacity:1;fill-rule:nonzero;stroke:none"
             d="m 0,0 c 17.593,-12.553 37.617,-29.531 58.448,-52.309 47.337,-51.76 61.697,-109.366 64.818,-124.662 h 32.29 V 40.293 H 5.772 C 6.229,36.829 6.715,31.8 6.669,26.298 6.601,18.11 5.366,7.628 0,0 m 114.255,-176.971 c -1.439,6.632 -4.592,19.107 -10.645,34.764 C 81.755,-85.669 40.397,-38.52 -9.148,-4.352 -22.753,5.031 -44.155,17.637 -61.709,23.548 V -176.971 Z M -7.255,5.024 c 6.035,8.566 5.754,24.884 4.159,35.269 H -61.709 V 32.752 C -54.086,30.28 -33.488,22.625 -7.255,5.024 M 164.373,-185.788 H -70.525 V 49.11 h 234.898 z" /></g><g
           transform="translate(229.8643,755.6309)"
           id="g104"><path
             id="path106"
             style="fill:#231f20;fill-opacity:1;fill-rule:evenodd;stroke:none"
             d="m 0,0 h 38.231 c 7.408,0 13.413,-6.2 13.413,-13.849 v -3.749 c 0,-7.648 -6.005,-13.848 -13.413,-13.848 H 0 c -7.408,0 -13.413,6.2 -13.413,13.848 v 3.749 C -13.413,-6.2 -7.408,0 0,0 m 3.527,-7.961 h 31.048 c 4.939,0 8.942,-3.415 8.942,-7.629 0,-4.214 -4.003,-7.629 -8.942,-7.629 H 3.527 c -4.938,0 -8.941,3.415 -8.941,7.629 0,4.214 4.003,7.629 8.941,7.629" /></g><g
           transform="translate(229.8643,755.6309)"
           id="g108"><path
             id="path110"
             style="fill:none;stroke:#231f20;stroke-width:1.12100005;stroke-linecap:square;stroke-linejoin:round;stroke-miterlimit:3.86400008;stroke-dasharray:none;stroke-opacity:1"
             d="m 0,0 h 38.231 c 7.408,0 13.413,-6.2 13.413,-13.849 v -3.749 c 0,-7.648 -6.005,-13.848 -13.413,-13.848 H 0 c -7.408,0 -13.413,6.2 -13.413,13.848 v 3.749 C -13.413,-6.2 -7.408,0 0,0 Z m 3.527,-7.961 h 31.048 c 4.939,0 8.942,-3.415 8.942,-7.629 0,-4.214 -4.003,-7.629 -8.942,-7.629 H 3.527 c -4.938,0 -8.941,3.415 -8.941,7.629 0,4.214 4.003,7.629 8.941,7.629 z" /></g><g
           transform="translate(284.6816,756.2144)"
           id="g112"><path
             id="path114"
             style="fill:#231f20;fill-opacity:1;fill-rule:evenodd;stroke:none"
             d="m 0,0 v -68.092 h 8.349 c 0.129,0 0,29.937 0,30.176 0,0.239 1.49,0 1.49,0 l 8.349,-30.176 h 8.945 l -8.348,30.176 c 0,0 10.007,3.936 10.137,11.927 0.129,7.991 0,14.013 0,14.013 0,0 -0.427,11.976 -10.137,11.976 z m 8.647,-8.696 v -20.573 h 6.56 c 0.427,0 4.939,0.059 5.068,5.963 0.129,5.905 0,9.243 0,9.243 0,0 0.169,5.426 -4.174,5.367 -4.343,-0.059 -7.454,0 -7.454,0" /></g><g
           transform="translate(284.6816,756.2144)"
           id="g116"><path
             id="path118"
             style="fill:none;stroke:#231f20;stroke-width:1.12100005;stroke-linecap:square;stroke-linejoin:miter;stroke-miterlimit:3.86400008;stroke-dasharray:none;stroke-opacity:1"
             d="m 0,0 v -68.092 h 8.349 c 0.129,0 0,29.937 0,30.176 0,0.239 1.49,0 1.49,0 l 8.349,-30.176 h 8.945 l -8.348,30.176 c 0,0 10.007,3.936 10.137,11.927 0.129,7.991 0,14.013 0,14.013 0,0 -0.427,11.976 -10.137,11.976 z m 8.647,-8.696 v -20.573 h 6.56 c 0.427,0 4.939,0.059 5.068,5.963 0.129,5.905 0,9.243 0,9.243 0,0 0.169,5.426 -4.174,5.367 -4.343,-0.059 -7.454,0 -7.454,0 z" /></g><g
           transform="translate(369.6304,756.2144)"
           id="g120"><path
             id="path122"
             style="fill:#231f20;fill-opacity:1;fill-rule:evenodd;stroke:none"
             d="m 0,0 h 7.575 l 15.819,-68.111 h -8.667 l -6.452,28.938 -8.768,0.013 -5.519,-28.951 h -8.999 z m 3.968,-16.257 -3.357,-15.44 h 6.697 z" /></g><g
           transform="translate(369.6304,756.2144)"
           id="g124"><path
             id="path126"
             style="fill:none;stroke:#231f20;stroke-width:1.12100005;stroke-linecap:butt;stroke-linejoin:miter;stroke-miterlimit:3.86400008;stroke-dasharray:none;stroke-opacity:1"
             d="m 0,0 h 7.575 l 15.819,-68.111 h -8.667 l -6.452,28.938 -8.768,0.013 -5.519,-28.951 h -8.999 z m 3.968,-16.257 -3.357,-15.44 h 6.697 z" /></g><g
           transform="translate(186.4011,756.2119)"
           id="g128"><path
             id="path130"
             style="fill:#231f20;fill-opacity:1;fill-rule:evenodd;stroke:none"
             d="m 0,0 0.041,-68.09 h 19.437 c 0,0 9.275,0.6 9.871,12.824 0.301,6.156 0,15.206 0,15.206 -0.227,3.063 -2.813,8.647 -5.963,8.647 0,0 3.319,1.609 3.747,7.215 0.427,5.606 0,13.418 0,13.418 0,0 -0.129,10.78 -7.752,10.78 z m 8.288,-8.769 0.061,-20.498 h 5.367 c 0.725,0 5.038,0.085 5.068,4.771 0.002,0.21 0,0 0,0 v 11.927 c 0,0 0.467,3.935 -4.174,3.876 C 9.969,-8.752 8.288,-8.769 8.288,-8.769 m 0.149,-29.144 v -20.573 c 0,-0.059 8.26,0 8.26,0 0,0 4.626,-0.26 4.771,3.876 0.127,3.636 0.042,11.142 0.042,11.142 0,0 0.723,5.614 -4.515,5.555 -5.237,-0.059 -8.558,0 -8.558,0" /></g><g
           transform="translate(186.4011,756.2119)"
           id="g132"><path
             id="path134"
             style="fill:none;stroke:#231f20;stroke-width:1.12100005;stroke-linecap:square;stroke-linejoin:miter;stroke-miterlimit:3.86400008;stroke-dasharray:none;stroke-opacity:1"
             d="m 0,0 0.041,-68.09 h 19.437 c 0,0 9.275,0.6 9.871,12.824 0.301,6.156 0,15.206 0,15.206 -0.227,3.063 -2.813,8.647 -5.963,8.647 0,0 3.319,1.609 3.747,7.215 0.427,5.606 0,13.418 0,13.418 0,0 -0.129,10.78 -7.752,10.78 z m 8.288,-8.769 0.061,-20.498 h 5.367 c 0.725,0 5.038,0.085 5.068,4.771 0.002,0.21 0,0 0,0 v 11.927 c 0,0 0.467,3.935 -4.174,3.876 C 9.969,-8.752 8.288,-8.769 8.288,-8.769 Z m 0.149,-29.144 v -20.573 c 0,-0.059 8.26,0 8.26,0 0,0 4.626,-0.26 4.771,3.876 0.127,3.636 0.042,11.142 0.042,11.142 0,0 0.723,5.614 -4.515,5.555 -5.237,-0.059 -8.558,0 -8.558,0 z" /></g><g
           transform="translate(391.501,756.2212)"
           id="g136"><path
             id="path138"
             style="fill:#231f20;fill-opacity:1;fill-rule:evenodd;stroke:none"
             d="M 0,0 C 1.314,-3.45 9.756,-27.045 9.756,-27.045 L 19.402,0 h 9.246 C 26.307,-5.186 14.103,-37.043 14.103,-37.043 l -0.04,-31.078 H 5.857 L 5.72,-37.197 c 0,0 -12.789,32.902 -14.236,37.197 z" /></g><g
           transform="translate(391.501,756.2212)"
           id="g140"><path
             id="path142"
             style="fill:none;stroke:#231f20;stroke-width:1.12100005;stroke-linecap:butt;stroke-linejoin:miter;stroke-miterlimit:3.86400008;stroke-dasharray:none;stroke-opacity:1"
             d="M 0,0 C 1.314,-3.45 9.756,-27.045 9.756,-27.045 L 19.402,0 h 9.246 C 26.307,-5.186 14.103,-37.043 14.103,-37.043 l -0.04,-31.078 H 5.857 L 5.72,-37.197 c 0,0 -12.789,32.902 -14.236,37.197 z" /></g><g
           transform="translate(328.6387,756.2144)"
           id="g144"><path
             id="path146"
             style="fill:#231f20;fill-opacity:1;fill-rule:evenodd;stroke:none"
             d="M 0,0 C 1.107,-3.128 14.075,-46.27 14.238,-47.074 14.407,-47.91 14.363,0 14.363,0 h 8.746 c 0,0 -0.286,-62.111 -0.33,-68.111 H 11.41 c -1.536,4.866 -14.764,46.342 -14.764,46.679 0,0.336 0.115,-41.746 0.021,-46.679 h -8.071 V 0 Z" /></g><g
           transform="translate(328.6387,756.2144)"
           id="g148"><path
             id="path150"
             style="fill:none;stroke:#231f20;stroke-width:1.12100005;stroke-linecap:butt;stroke-linejoin:miter;stroke-miterlimit:3.86400008;stroke-dasharray:none;stroke-opacity:1"
             d="M 0,0 C 1.107,-3.128 14.075,-46.27 14.238,-47.074 14.407,-47.91 14.363,0 14.363,0 h 8.746 c 0,0 -0.286,-62.111 -0.33,-68.111 H 11.41 c -1.536,4.866 -14.764,46.342 -14.764,46.679 0,0.336 0.115,-41.746 0.021,-46.679 h -8.071 V 0 Z" /></g><g
           transform="translate(226.0791,772.4854)"
           id="g152"><path
             id="path154"
             style="fill:#231f20;fill-opacity:1;fill-rule:evenodd;stroke:none"
             d="M 0,0 C 0.409,-0.565 0.614,-1.243 0.614,-2.031 0.614,-2.843 0.409,-3.496 0,-3.99 c -0.229,-0.277 -0.566,-0.53 -1.011,-0.758 0.68,-0.247 1.191,-0.638 1.535,-1.173 0.349,-0.536 0.523,-1.186 0.523,-1.95 0,-0.788 -0.198,-1.495 -0.595,-2.121 -0.253,-0.415 -0.569,-0.764 -0.948,-1.047 -0.428,-0.325 -0.933,-0.548 -1.517,-0.668 -0.577,-0.121 -1.207,-0.181 -1.886,-0.181 h -6.03 V 1.417 h 6.463 C -1.835,1.393 -0.68,0.921 0,0 m -7.275,-6.029 v -3.548 h 3.267 c 0.584,0 1.038,0.078 1.363,0.235 0.59,0.289 0.885,0.842 0.885,1.661 0,0.692 -0.286,1.167 -0.858,1.426 -0.319,0.144 -0.767,0.219 -1.344,0.226 z m 0,5.135 v -2.933 h 3.267 c 0.584,0 1.056,0.108 1.418,0.325 0.366,0.223 0.55,0.613 0.55,1.173 0,0.62 -0.241,1.029 -0.722,1.228 -0.415,0.138 -0.945,0.207 -1.589,0.207 z" /></g><g
           transform="translate(238.377,761.7891)"
           id="g156"><path
             id="path158"
             style="fill:#231f20;fill-opacity:1;fill-rule:evenodd;stroke:none"
             d="m 0,0 c -0.831,-1.023 -2.091,-1.534 -3.782,-1.534 -1.691,0 -2.952,0.511 -3.782,1.534 -0.831,1.029 -1.246,2.266 -1.246,3.71 0,1.42 0.415,2.65 1.246,3.692 0.83,1.041 2.091,1.561 3.782,1.561 1.691,0 2.951,-0.52 3.782,-1.561 C 0.831,6.36 1.246,5.13 1.246,3.71 1.246,2.266 0.831,1.029 0,0 m -2.058,1.426 c 0.403,0.536 0.604,1.297 0.605,2.284 0,0.987 -0.202,1.745 -0.605,2.274 -0.403,0.536 -0.981,0.804 -1.733,0.804 -0.752,0 -1.333,-0.268 -1.742,-0.804 -0.404,-0.529 -0.605,-1.287 -0.605,-2.274 0,-0.987 0.201,-1.748 0.605,-2.284 0.409,-0.535 0.99,-0.803 1.742,-0.803 0.752,0 1.33,0.268 1.733,0.803" /></g><g
           transform="translate(247.8491,770.6621)"
           id="g160"><path
             id="path162"
             style="fill:#231f20;fill-opacity:1;fill-rule:evenodd;stroke:none"
             d="m 0,0 c 0.036,0 0.111,-0.003 0.226,-0.009 v -2.636 c -0.163,0.019 -0.307,0.03 -0.434,0.037 -0.126,0.005 -0.228,0.008 -0.306,0.008 -1.036,0 -1.731,-0.337 -2.086,-1.01 -0.198,-0.38 -0.297,-0.964 -0.297,-1.752 v -4.702 h -2.591 v 9.838 h 2.455 V -1.94 c 0.397,0.655 0.743,1.104 1.038,1.344 0.482,0.404 1.107,0.605 1.878,0.605 C -0.069,0.009 -0.03,0.006 0,0" /></g><g
           transform="translate(258.4502,769.8677)"
           id="g164"><path
             id="path166"
             style="fill:#231f20;fill-opacity:1;fill-rule:evenodd;stroke:none"
             d="M 0,0 C 0.65,-0.53 0.975,-1.411 0.975,-2.645 V -9.27 h -2.636 v 5.984 c 0,0.518 -0.069,0.915 -0.208,1.192 -0.253,0.506 -0.734,0.759 -1.444,0.759 -0.873,0 -1.471,-0.371 -1.796,-1.111 -0.169,-0.391 -0.253,-0.891 -0.253,-1.498 V -9.27 h -2.563 v 9.821 h 2.482 v -1.435 c 0.331,0.505 0.644,0.869 0.939,1.092 0.529,0.397 1.2,0.596 2.012,0.596 C -1.475,0.804 -0.644,0.536 0,0" /></g><g
           transform="translate(266.5864,766.582)"
           id="g168"><path
             id="path170"
             style="fill:#231f20;fill-opacity:1;fill-rule:evenodd;stroke:none"
             d="m 0,0 c 0.475,0.06 0.815,0.135 1.02,0.226 0.367,0.156 0.55,0.4 0.551,0.731 0,0.403 -0.142,0.68 -0.425,0.831 C 0.869,1.944 0.46,2.022 -0.081,2.022 -0.689,2.022 -1.119,1.872 -1.372,1.571 -1.553,1.348 -1.673,1.047 -1.733,0.668 h -2.482 c 0.054,0.86 0.295,1.568 0.722,2.122 0.68,0.866 1.847,1.299 3.502,1.299 1.077,0 2.034,-0.214 2.87,-0.641 C 3.716,3.021 4.134,2.214 4.134,1.029 v -4.513 c 0,-0.313 0.006,-0.692 0.018,-1.137 0.018,-0.337 0.069,-0.566 0.154,-0.687 0.084,-0.12 0.21,-0.219 0.379,-0.297 V -5.984 H 1.887 C 1.808,-5.786 1.754,-5.6 1.724,-5.425 1.694,-5.25 1.67,-5.052 1.652,-4.829 1.297,-5.214 0.887,-5.542 0.424,-5.813 c -0.553,-0.318 -1.179,-0.478 -1.877,-0.478 -0.891,0 -1.628,0.252 -2.212,0.758 -0.577,0.512 -0.866,1.234 -0.866,2.166 0,1.21 0.466,2.085 1.399,2.627 0.511,0.295 1.263,0.505 2.257,0.632 z M 1.562,-1.2 C 1.399,-1.303 1.233,-1.387 1.065,-1.453 0.903,-1.514 0.677,-1.57 0.388,-1.625 l -0.577,-0.108 c -0.542,-0.096 -0.93,-0.214 -1.165,-0.352 -0.397,-0.234 -0.596,-0.599 -0.596,-1.092 0,-0.44 0.12,-0.759 0.362,-0.957 0.246,-0.193 0.544,-0.289 0.893,-0.289 0.553,0 1.062,0.163 1.526,0.487 0.469,0.326 0.712,0.918 0.731,1.779 z" /></g><g
           transform="translate(274.3257,758.7109)"
           id="g172"><path
             id="path174"
             style="fill:#231f20;fill-opacity:1;fill-rule:evenodd;stroke:none"
             d="M 0,0 0.325,-0.018 C 0.578,-0.03 0.818,-0.021 1.047,0.009 1.275,0.04 1.468,0.108 1.625,0.217 1.775,0.319 1.914,0.533 2.04,0.858 2.172,1.183 2.227,1.381 2.203,1.454 l -3.611,10.272 h 2.861 l 2.149,-7.258 2.03,7.258 H 8.368 L 4.992,2.049 C 4.342,0.184 3.827,-0.972 3.448,-1.417 3.069,-1.868 2.311,-2.094 1.173,-2.094 c -0.228,0 -0.412,0.003 -0.55,0.009 -0.139,0 -0.346,0.009 -0.623,0.027 z" /></g></g></g></g></svg>