<?xml version="1.0" encoding="utf-8"?>
<!-- Generator: Adobe Illustrator 27.1.1, SVG Export Plug-In . SVG Version: 6.00 Build 0)  -->
<svg version="1.0" id="Capa_2_00000080171608599969101160000007553483744786236558_"
	 xmlns="http://www.w3.org/2000/svg" xmlns:xlink="http://www.w3.org/1999/xlink" x="0px" y="0px" viewBox="0 0 917.3 304.1"
	 style="enable-background:new 0 0 917.3 304.1;" xml:space="preserve">
<style type="text/css">
	.st0{fill:#575756;}
	.st1{fill:#009640;}
</style>
<g>
	<g>
		<path class="st0" d="M393.2,135.6c0-1.8,0.2-3.5,0.7-5c0.4-1.5,1.1-2.8,1.9-3.9c0.8-1.1,1.9-1.9,3-2.5c1.2-0.6,2.5-0.9,4-0.9
			s2.7,0.2,3.7,0.7c1,0.5,1.9,1.2,2.7,2.1l0.2-2.4h4.8v23.3c0,1.6-0.3,3-0.8,4.3s-1.3,2.3-2.2,3.2c-1,0.9-2.1,1.5-3.4,2
			c-1.3,0.4-2.8,0.7-4.4,0.7c-0.7,0-1.4-0.1-2.2-0.2c-0.8-0.1-1.6-0.4-2.5-0.7c-0.8-0.3-1.6-0.7-2.4-1.2c-0.7-0.5-1.4-1.1-1.9-1.9
			l2.5-3.2c0.9,1.1,1.9,1.8,2.9,2.3c1,0.5,2.1,0.7,3.2,0.7c0.9,0,1.7-0.1,2.4-0.4c0.7-0.2,1.3-0.6,1.8-1.1c0.5-0.5,0.9-1.1,1.2-1.8
			c0.3-0.7,0.4-1.5,0.4-2.5v-1.6c-0.7,0.8-1.6,1.5-2.6,1.9c-1,0.4-2.2,0.7-3.5,0.7c-1.5,0-2.8-0.3-4-0.9c-1.2-0.6-2.2-1.5-3-2.5
			c-0.8-1.1-1.5-2.4-1.9-3.8c-0.4-1.5-0.7-3.1-0.7-4.8L393.2,135.6L393.2,135.6z M398.5,136.1c0,1.1,0.1,2.1,0.3,3
			c0.2,0.9,0.6,1.8,1,2.5c0.5,0.7,1,1.3,1.8,1.7c0.7,0.4,1.6,0.6,2.5,0.6c1.2,0,2.2-0.3,3-0.8c0.8-0.5,1.4-1.2,1.8-2v-10.6
			c-0.5-0.8-1.1-1.5-1.9-2c-0.8-0.5-1.7-0.7-2.9-0.7c-1,0-1.8,0.2-2.5,0.6c-0.7,0.4-1.3,1-1.8,1.7c-0.5,0.7-0.8,1.6-1,2.5
			c-0.2,1-0.3,2-0.3,3.1L398.5,136.1L398.5,136.1z"/>
		<path class="st0" d="M434.5,123.4c0.4,0,0.9,0,1.3,0c0.4,0,0.8,0.1,1.2,0.1c0.4,0.1,0.7,0.1,1.1,0.2c0.3,0.1,0.6,0.1,0.8,0.2
			l-0.7,5.2c-1.6-0.4-3.2-0.6-4.8-0.6c-1.8,0-3.2,0.4-4.3,1.1c-1.1,0.7-1.9,1.8-2.4,3.1v15h-5.3v-24h5l0.2,3.7
			c1-1.3,2.1-2.3,3.5-3.1S432.8,123.4,434.5,123.4L434.5,123.4z"/>
		<path class="st0" d="M457.1,144.5c-0.8,1.2-1.8,2.1-3,2.8c-1.2,0.7-2.5,1-3.9,1c-1.2,0-2.4-0.2-3.4-0.6c-1-0.4-1.9-1-2.6-1.8
			c-0.7-0.8-1.3-1.9-1.7-3.2c-0.4-1.3-0.6-2.8-0.6-4.7v-14.2h5.3V138c0,1.1,0.1,2.1,0.3,2.9c0.2,0.7,0.4,1.3,0.8,1.8
			c0.4,0.4,0.8,0.8,1.3,0.9c0.5,0.2,1.2,0.3,1.9,0.3c1.4,0,2.6-0.3,3.4-0.8c0.9-0.6,1.5-1.3,2-2.2v-17h5.3v24h-4.8L457.1,144.5
			L457.1,144.5z"/>
		<path class="st0" d="M488.7,136c0,1.7-0.2,3.4-0.6,4.9c-0.4,1.5-1,2.8-1.8,3.9s-1.8,1.9-2.9,2.5c-1.2,0.6-2.5,0.9-4,0.9
			c-1.4,0-2.6-0.2-3.6-0.7c-1-0.4-1.9-1.1-2.7-1.9V157h-5.3v-33.2h4.9l0.2,2.4c0.8-0.9,1.7-1.6,2.7-2.1c1.1-0.5,2.3-0.7,3.7-0.7
			c1.5,0,2.9,0.3,4,0.9c1.2,0.6,2.2,1.4,3,2.5c0.8,1.1,1.4,2.4,1.8,3.9s0.6,3.2,0.6,5L488.7,136L488.7,136z M483.4,135.6
			c0-1.1-0.1-2.1-0.3-3c-0.2-0.9-0.6-1.8-1-2.5c-0.5-0.7-1-1.3-1.7-1.7c-0.7-0.4-1.6-0.6-2.5-0.6c-1.2,0-2.2,0.2-2.9,0.7
			c-0.8,0.5-1.4,1.2-1.8,2v10.7c0.4,0.8,1,1.5,1.8,2c0.8,0.5,1.8,0.8,3,0.8c1,0,1.8-0.2,2.5-0.6c0.7-0.4,1.3-1,1.7-1.7
			c0.4-0.7,0.8-1.6,1-2.5s0.3-2,0.3-3.1L483.4,135.6L483.4,135.6z"/>
		<path class="st0" d="M491.8,135.6c0-1.7,0.3-3.3,0.8-4.8c0.5-1.5,1.2-2.8,2.2-3.9s2.1-1.9,3.5-2.6c1.4-0.6,2.9-0.9,4.7-0.9
			s3.3,0.3,4.7,0.9c1.4,0.6,2.5,1.5,3.5,2.6c1,1.1,1.7,2.4,2.2,3.9c0.5,1.5,0.7,3.1,0.7,4.8v0.5c0,1.7-0.3,3.4-0.7,4.9
			c-0.5,1.5-1.2,2.8-2.2,3.9c-1,1.1-2.1,1.9-3.5,2.6c-1.4,0.6-2.9,0.9-4.7,0.9s-3.3-0.3-4.7-0.9c-1.4-0.6-2.5-1.5-3.5-2.6
			c-1-1.1-1.7-2.4-2.2-3.9c-0.5-1.5-0.8-3.1-0.8-4.9V135.6z M497.1,136c0,1.1,0.1,2.1,0.3,3.1c0.2,1,0.6,1.8,1.1,2.5
			c0.5,0.7,1.1,1.3,1.8,1.7c0.7,0.4,1.6,0.6,2.6,0.6s1.9-0.2,2.6-0.6c0.7-0.4,1.3-1,1.8-1.7c0.5-0.7,0.8-1.6,1.1-2.5
			c0.2-1,0.3-2,0.3-3.1v-0.5c0-1.1-0.1-2.1-0.3-3c-0.2-1-0.6-1.8-1.1-2.5c-0.5-0.7-1.1-1.3-1.8-1.7c-0.7-0.4-1.6-0.6-2.6-0.6
			c-1,0-1.9,0.2-2.6,0.6c-0.7,0.4-1.3,1-1.8,1.7c-0.5,0.7-0.8,1.6-1,2.5c-0.2,1-0.3,2-0.3,3L497.1,136L497.1,136z"/>
	</g>
	<g>
		<path class="st0" d="M321.2,303V166.5h28.7c11.5,0,19.9,2.4,25.2,7.1c5.3,4.7,8,12.5,8,23.4c0,2.6-0.1,11.5-0.2,13.6
			c-0.3,5.8-1.6,10.4-3.8,13.9c-2.2,3.4-5.6,6-10.3,7.6v3.8c4.8,1.6,8.3,4.1,10.6,7.6c2.3,3.4,3.5,8.2,3.7,14.2
			c0.1,2.7,0.1,12.1,0,14.9c-0.4,10.8-3.1,18.6-8.2,23.3c-5.1,4.7-13.4,7.1-24.9,7.1L321.2,303L321.2,303z M343.3,224h6.7
			c3.6,0,6.4-1.2,8.3-3.6c1.9-2.4,2.8-5.9,2.9-10.4c0.1-2.5,0.1-11.8,0-14.2c-0.1-3.3-1-5.8-2.9-7.4c-1.9-1.6-4.6-2.5-8.3-2.5h-6.7
			V224L343.3,224z M343.3,283.6h6.7c3.6,0,6.4-1,8.3-2.9c1.9-1.9,2.8-4.7,2.8-8.4v-13.6c0-5.5-0.9-9.4-2.7-11.7
			c-1.8-2.3-4.7-3.5-8.7-3.5h-6.5L343.3,283.6L343.3,283.6z"/>
		<path class="st0" d="M423.9,230.5c-11.1-0.3-19.1-2.9-23.9-7.9c-4.8-5.1-7.2-13.3-7.2-24.7c0-11.4,2.4-19.6,7.2-24.6
			c4.8-4.9,12.8-7.2,23.9-7.9c13.4-0.8,48.3-0.7,60.3,0c11.1,0.6,19.1,2.9,24,7.9c4.8,4.9,7.3,13.1,7.3,24.6s-2.4,19.6-7.3,24.7
			c-4.8,5.1-12.8,7.3-24,7.9C468.1,231.4,442.1,231,423.9,230.5z M488.2,208.4c3-0.1,5.3-1.1,6.8-2.8c1.5-1.8,2.3-4.4,2.3-7.8
			s-0.8-6.1-2.3-7.8c-1.5-1.7-3.8-2.5-6.8-2.6c-11.3-0.4-55.4-0.5-68.3,0c-3,0.1-5.3,1-6.8,2.7c-1.5,1.7-2.3,4.3-2.3,7.7
			s0.8,6,2.3,7.8c1.5,1.8,3.8,2.7,6.8,2.8C433.8,208.8,474.1,208.8,488.2,208.4z"/>
		<path class="st0" d="M525.3,303V166.5h29.9c11.4,0,19.7,2.4,24.8,7.1c5.1,4.7,7.9,12.5,8.3,23.4c0.2,3.6,0.2,24.5,0,28
			c-0.2,6.9-1.3,12.6-3.5,16.9c-2.2,4.3-5.5,7.6-9.9,9.9l15.4,51.3h-23.4l-12.8-47.6h-6.8V303L525.3,303L525.3,303z M547.3,236h7.8
			c3.6,0,6.4-0.9,8.2-2.6c1.8-1.7,2.8-4.2,3-7.3c0.2-3.2,0.2-27.1,0-30.3c-0.2-3.3-1.1-5.8-2.9-7.4c-1.8-1.6-4.5-2.5-8.2-2.5h-7.9
			L547.3,236L547.3,236z"/>
		<path class="st0" d="M601.4,303V166.5h32.5l9.6,43.4l9.9,61.4h2.2l-2-48.8l-1.7-56h21.4V303h-34.2l-9.8-45.7l-7.7-61.3H619
			l3.7,107L601.4,303L601.4,303z"/>
		<path class="st0" d="M684.5,303l17.8-136.5h35.5L755.7,303h-22.6l-3.1-31.2h-19.8l-3.1,31.2H684.5L684.5,303z M712.1,252.3H728
			l-6.4-57.4h-2.9L712.1,252.3L712.1,252.3z"/>
		<path class="st0" d="M773,303v-49.3l-23.7-87.2h22.4l10.2,52.6h4.3l10.2-52.6h22.4l-23.7,87.3V303H773L773,303z"/>
	</g>
	<path class="st1" d="M0,1.1V303h299.6V1.1H0L0,1.1z M100.9,23.8c0.3,22-5.4,36.8-9.5,44.6C66.5,53.5,42.6,43,22.7,35.8v-12H100.9z
		 M22.7,60.1c34.1,13.3,78.5,36.2,118.2,74.3c41.6,40,70.1,89,84.8,145.8H22.7V60.1z M276.9,280.2h-27.6
		c-15.4-63.4-46.4-117.9-92.5-162.2c-15-14.4-30.6-26.8-46.2-37.4c5.9-10.4,13.5-29.2,13.1-56.8h153.2L276.9,280.2L276.9,280.2z"/>
</g>
</svg>
