<?xml version="1.0" encoding="utf-8"?>
<!-- Generator: Adobe Illustrator 27.1.1, SVG Export Plug-In . SVG Version: 6.00 Build 0)  -->
<svg version="1.0" id="Capa_2_00000080171608599969101160000007553483744786236558_"
	 xmlns="http://www.w3.org/2000/svg" xmlns:xlink="http://www.w3.org/1999/xlink" x="0px" y="0px" viewBox="0 0 917.3 304.1"
	 style="enable-background:new 0 0 917.3 304.1;" xml:space="preserve">
<style type="text/css">
	.st0{fill:#EA710D;}
	.st1{fill:#575756;}
</style>
<g>
	<path class="st0" d="M0,39.8v226.4h226.4V39.8H0z M209.2,225.1c-21.5-6.8-36.5-26.8-36.5-49.9s15-43.1,36.5-49.9V225.1L209.2,225.1
		z M17.2,57h34.2c-2.5,12.7-3.8,25.7-3.8,38.7c0,59.7,26.4,115.5,71.5,153.3H17.2L17.2,57L17.2,57z M147.7,249
		c-0.3-0.2-0.5-0.5-0.8-0.7c-51.4-34-82.1-91.1-82.1-152.6c0-13.1,1.4-26.1,4.1-38.7h140.3v50.5c-31.3,7.3-53.7,35.1-53.7,67.7
		s22.4,60.4,53.7,67.7v6.1L147.7,249L147.7,249z"/>
	<g>
		<path class="st1" d="M709.2,265.9c-1.5,0-2.7-0.2-3.6-0.6c-0.9-0.4-1.6-1.1-2-2c-0.4-0.9-0.7-2.1-0.7-3.6
			c-0.1-1.9-0.1-3.9-0.1-5.9c0-2,0-3.9,0-5.9s0-3.9,0-5.9c0-2,0.1-3.9,0.1-5.8c0-1.5,0.3-2.8,0.7-3.7c0.4-0.9,1.1-1.6,2-2
			c0.9-0.4,2.1-0.6,3.5-0.6c2.1,0,3.6,0.5,4.6,1.4c1,1,1.5,2.5,1.6,4.8c0,1.1,0.1,2.2,0.1,3.3c0,1.1,0,2.2-0.1,3.3H712
			c0-1.2,0.1-2.4,0.1-3.6c0-1.2,0-2.4-0.1-3.5c-0.1-1-0.3-1.7-0.7-2.1c-0.5-0.5-1.1-0.7-2-0.7c-1,0-1.7,0.2-2.1,0.7
			c-0.5,0.5-0.7,1.2-0.7,2.1c-0.1,2.1-0.1,4.1-0.1,6.2c0,2.1,0,4.1,0,6.2s0,4.1,0,6.2c0,2.1,0.1,4.1,0.1,6.2c0,1,0.3,1.7,0.7,2.1
			c0.5,0.5,1.2,0.7,2.1,0.7c1,0,1.7-0.2,2.2-0.7c0.5-0.4,0.8-1.2,0.8-2.1c0-0.7,0-1.5,0-2.3c0-0.8,0-1.5,0-2.3s0-1.5,0-2.3h-2.9v-3
			h6.2c0,1.2,0.1,2.5,0.1,4.1c0,1.5,0,3.3-0.1,5.3c-0.1,2.2-0.6,3.8-1.6,4.8C713,265.4,711.4,265.9,709.2,265.9L709.2,265.9z"/>
		<path class="st1" d="M722.1,265.6v-35.5h5.8c2.2,0,3.7,0.5,4.7,1.4c1,0.9,1.5,2.5,1.6,4.7c0.1,1.3,0.1,2.5,0.1,3.6
			c0,1.1,0,2.2,0,3.2c0,1,0,2.1-0.1,3.1c-0.1,1.5-0.3,2.7-0.8,3.6c-0.5,0.9-1.2,1.6-2.2,1.9l3.7,13.9h-3.6l-3.3-13.3h-2.5v13.3
			H722.1L722.1,265.6z M725.5,249.2h2.4c1,0,1.7-0.2,2.2-0.7c0.5-0.5,0.7-1.2,0.8-2.2c0-1.1,0.1-2.2,0.1-3.4c0-1.1,0-2.3,0-3.4
			c0-1.2,0-2.3-0.1-3.4c-0.1-1-0.3-1.7-0.7-2.2c-0.5-0.5-1.2-0.7-2.1-0.7h-2.4V249.2z"/>
		<path class="st1" d="M746.9,265.9c-2.2,0-3.8-0.5-4.8-1.4c-1-1-1.5-2.5-1.5-4.7c-0.1-4.9-0.1-9.9-0.1-14.8s0-9.9,0.1-14.8h3.4
			c0,3.3-0.1,6.6-0.1,10c0,3.4,0,6.8,0,10.2c0,3.4,0,6.7,0.1,10c0,0.9,0.2,1.6,0.7,2c0.5,0.4,1.2,0.7,2.1,0.7s1.7-0.2,2.1-0.7
			c0.5-0.4,0.7-1.1,0.7-2c0-3.3,0.1-6.7,0.1-10s0-6.8,0-10.2c0-3.4,0-6.7-0.1-10h3.4c0.1,4.9,0.1,9.9,0.1,14.8s0,9.9-0.1,14.8
			c0,2.2-0.5,3.8-1.5,4.7C750.6,265.5,749.1,265.9,746.9,265.9L746.9,265.9z"/>
		<path class="st1" d="M760,265.6v-35.5h5.8c2.2,0,3.7,0.5,4.7,1.4c1,0.9,1.5,2.5,1.6,4.7c0.1,1.9,0.1,3.6,0.1,5.1
			c0,1.5,0,3-0.1,4.6c-0.1,2.2-0.6,3.8-1.6,4.7c-1,0.9-2.6,1.4-4.7,1.4h-2.4v13.5H760z M763.4,249h2.4c1,0,1.7-0.2,2.2-0.7
			c0.5-0.5,0.7-1.2,0.8-2.2c0-1.1,0.1-2.2,0.1-3.3c0-1.1,0-2.2,0-3.4c0-1.1,0-2.2-0.1-3.4c-0.1-1-0.3-1.7-0.7-2.2
			c-0.5-0.5-1.2-0.7-2.1-0.7h-2.4V249L763.4,249z"/>
		<path class="st1" d="M784.4,265.9c-2.2,0-3.8-0.5-4.8-1.4c-1-1-1.5-2.5-1.5-4.7c-0.1-2-0.1-4-0.1-6c0-2,0-3.9,0-5.9
			c0-2,0-3.9,0-5.9c0-2,0.1-4,0.1-6c0-2.2,0.5-3.8,1.5-4.7c1-1,2.6-1.4,4.8-1.4s3.8,0.5,4.8,1.4c1,1,1.5,2.5,1.5,4.7
			c0,2.1,0.1,4.1,0.1,6c0,2,0,3.9,0,5.9c0,2,0,3.9,0,5.9c0,2-0.1,4-0.1,6c-0.1,2.2-0.6,3.8-1.5,4.7
			C788.2,265.5,786.6,265.9,784.4,265.9z M784.4,263c1,0,1.7-0.2,2.2-0.6c0.4-0.4,0.7-1.1,0.7-2.1c0.1-2.1,0.1-4.2,0.1-6.3
			c0-2.1,0-4.2,0-6.3c0-2.1,0-4.2,0-6.2c0-2.1-0.1-4.1-0.1-6.1c0-1-0.2-1.7-0.7-2.1c-0.5-0.4-1.2-0.6-2.2-0.6c-1,0-1.7,0.2-2.2,0.6
			c-0.5,0.4-0.7,1.1-0.7,2.1c-0.1,2-0.1,4.1-0.1,6.1c0,2.1,0,4.1,0,6.2c0,2.1,0,4.2,0.1,6.3c0,2.1,0.1,4.2,0.1,6.3
			c0,1,0.3,1.7,0.7,2.1C782.7,262.8,783.4,263,784.4,263L784.4,263z"/>
		<path class="st1" d="M809.6,265.6v-35.5h5.7c2.2,0,3.7,0.5,4.8,1.4c1,0.9,1.5,2.5,1.6,4.7c0,1.3,0,2.5,0,3.5s0,2,0,3
			c-0.1,1.3-0.3,2.3-0.8,3c-0.4,0.7-1.1,1.3-2.1,1.6v0.9c1,0.3,1.7,0.9,2.1,1.6c0.5,0.7,0.7,1.8,0.7,3.1c0,1.2,0,2.3,0,3.3
			s0,2.1,0,3.4c-0.1,2.2-0.6,3.7-1.6,4.7c-1,1-2.6,1.4-4.8,1.4L809.6,265.6L809.6,265.6z M813,246.2h2.2c1,0,1.7-0.3,2.2-0.9
			c0.5-0.6,0.7-1.5,0.7-2.7c0-1.2,0.1-2.3,0.1-3.3c0-1,0-2.1-0.1-3.3c0-1-0.3-1.7-0.7-2.2c-0.5-0.5-1.2-0.7-2.1-0.7H813V246.2
			L813,246.2z M813,262.6h2.3c1,0,1.7-0.3,2.2-0.8c0.5-0.5,0.7-1.3,0.8-2.3c0-1.2,0-2.3,0-3.3c0-1,0-2.1,0-3.2
			c0-1.3-0.3-2.3-0.8-2.9c-0.5-0.6-1.3-0.8-2.3-0.8H813V262.6L813,262.6z"/>
		<path class="st1" d="M834.4,265.9c-2.2,0-3.8-0.5-4.8-1.4c-1-1-1.5-2.5-1.5-4.7c-0.1-2-0.1-4-0.1-6c0-2,0-3.9,0-5.9
			c0-2,0-3.9,0-5.9c0-2,0.1-4,0.1-6c0-2.2,0.5-3.8,1.5-4.7c1-1,2.6-1.4,4.8-1.4s3.8,0.5,4.8,1.4c1,1,1.5,2.5,1.5,4.7
			c0,2.1,0.1,4.1,0.1,6c0,2,0,3.9,0,5.9c0,2,0,3.9,0,5.9c0,2-0.1,4-0.1,6c-0.1,2.2-0.6,3.8-1.5,4.7
			C838.2,265.5,836.6,265.9,834.4,265.9z M834.4,263c1,0,1.7-0.2,2.2-0.6c0.4-0.4,0.7-1.1,0.7-2.1c0.1-2.1,0.1-4.2,0.1-6.3
			c0-2.1,0-4.2,0-6.3c0-2.1,0-4.2,0-6.2c0-2.1-0.1-4.1-0.1-6.1c0-1-0.2-1.7-0.7-2.1c-0.5-0.4-1.2-0.6-2.2-0.6c-1,0-1.7,0.2-2.2,0.6
			c-0.5,0.4-0.7,1.1-0.7,2.1c-0.1,2-0.1,4.1-0.1,6.1c0,2.1,0,4.1,0,6.2c0,2.1,0,4.2,0.1,6.3c0,2.1,0.1,4.2,0.1,6.3
			c0,1,0.3,1.7,0.7,2.1C832.7,262.8,833.5,263,834.4,263L834.4,263z"/>
		<path class="st1" d="M847.7,265.6v-35.5h5.8c2.2,0,3.7,0.5,4.7,1.4c1,0.9,1.5,2.5,1.6,4.7c0.1,1.3,0.1,2.5,0.1,3.6
			c0,1.1,0,2.2,0,3.2c0,1,0,2.1-0.1,3.1c-0.1,1.5-0.3,2.7-0.8,3.6c-0.5,0.9-1.2,1.6-2.2,1.9l3.7,13.9h-3.6l-3.3-13.3h-2.5v13.3
			H847.7L847.7,265.6z M851.1,249.2h2.4c1,0,1.7-0.2,2.2-0.7c0.5-0.5,0.7-1.2,0.8-2.2c0-1.1,0.1-2.2,0.1-3.4c0-1.1,0-2.3,0-3.4
			c0-1.2,0-2.3-0.1-3.4c-0.1-1-0.3-1.7-0.7-2.2c-0.5-0.5-1.2-0.7-2.1-0.7h-2.4V249.2z"/>
		<path class="st1" d="M866.5,265.6v-35.5h5.6l2.1,11.3l3,21.2h1l-0.6-19.5l-0.2-12.9h3.3v35.5h-5.8l-2.3-12.6l-2.5-19.8h-1.1
			l0.6,19.1l0.2,13.3L866.5,265.6L866.5,265.6z"/>
		<path class="st1" d="M886.5,265.6l3.9-35.5h6.1l3.9,35.5H897l-0.9-9.9h-5.2l-0.9,9.9H886.5z M891.2,252.6h4.5l-0.7-7.7l-0.9-11.7
			h-1.2l-0.9,11.7L891.2,252.6L891.2,252.6z"/>
		<path class="st1" d="M908.2,265.6v-9.2l-5.1-26.3h3.5l1.7,9.8l1.1,10.2h0.8l1.1-10.2l1.7-9.8h3.5l-5.1,26.3v9.2L908.2,265.6
			L908.2,265.6z"/>
	</g>
	<g>
		<path class="st1" d="M281,178.1c-11.6,0-19.9-2.4-24.9-7.3c-4.9-4.9-7.5-12.9-7.8-24.2c-0.1-5.6-0.1-72,0-77.6
			c0.2-9.7,2.8-17.3,7.9-22.9c5.1-5.5,13.3-8.3,24.7-8.3c11.4,0,19.3,2.4,24.3,7.2c5,4.8,7.7,12.8,8,24c0.1,2-0.1,18.8-0.2,20.7H291
			c0.1-2.3,0.2-22.4,0.2-24.8c-0.1-3-1-5.3-2.7-6.9c-1.7-1.5-4.2-2.3-7.5-2.3s-5.9,0.8-7.7,2.3c-1.8,1.5-2.7,3.8-2.8,6.9
			c-0.2,6.6-0.2,79,0,85.6c0.1,3.1,1.1,5.4,2.8,7c1.8,1.6,4.3,2.4,7.7,2.4c3.5,0,6.2-0.8,8.1-2.4c1.8-1.6,2.8-3.9,2.8-7
			c0.1-2.3,0.1-22.8,0-25.1H314c0.1,3.3,0.1,17.8,0,21.1c-0.3,11.2-3,19.3-8.1,24.2C300.8,175.7,292.5,178.1,281,178.1L281,178.1z"
			/>
		<path class="st1" d="M477.9,176.5V39.4h36.2l10.5,52.9l3.5,34.3h3l3.5-34.3l9.5-52.9h36.1v137.1h-22.2v-38.4l2.6-70.1h-2.8
			l-7.7,57.5l-9.5,50.8h-23.3l-9.3-50.8L500.2,68h-2.4l2.3,66.8v41.6L477.9,176.5L477.9,176.5z"/>
		<path class="st1" d="M675.7,176.5V39.4h22.2V157H730v19.5H675.7z"/>
		<path class="st1" d="M768.9,178.1c-11.4,0-19.5-2.4-24.3-7.3c-4.9-4.9-7.5-12.9-8.1-24.2c-0.1-2.2,0.4-18.8,0.6-21.1H758
			c-0.2,4.4-0.3,21.4,0,25.1c0.3,3.1,1.3,5.4,3,7c1.7,1.6,4.4,2.4,7.9,2.4c3.5,0,6-0.8,7.6-2.4c1.6-1.6,2.5-3.9,2.8-7
			c0.2-2.3,0.4-4.5,0.5-6.5c0.1-2.1,0.1-4.1,0-6.3c-0.1-2.1-0.2-4.3-0.5-6.7c-0.2-2.9-0.9-5.4-2.1-7.5c-1.2-2.2-3.3-3.6-6.1-4.4
			l-12.8-3.3c-5.5-1.4-9.9-3.5-13.1-6.2c-3.2-2.7-5.5-6.1-6.9-10.2c-1.4-4.1-2.2-9-2.4-14.6c-0.1-2.8-0.1-13.3,0-15.8
			c0.3-7.5,1.5-13.5,3.7-18.1c2.2-4.6,5.7-7.9,10.4-10s11-3.1,18.8-3.1c11,0,19,2.4,23.9,7.2s7.6,12.8,8.1,24
			c0.1,2.6-0.1,17.2-0.3,20.7h-21.2c0.2-4.1,0.3-20.6,0.2-24.8c-0.1-3-1.1-5.3-3-6.9c-1.9-1.5-4.4-2.3-7.8-2.3
			c-3.5,0-6.1,0.8-7.8,2.3c-1.7,1.5-2.7,3.8-3,6.9c-0.3,3.3-0.4,6.6-0.4,9.9s0.1,6.6,0.4,9.9c0.3,3,1,5.5,2.3,7.5
			c1.2,2.1,3.4,3.5,6.5,4.2l11.2,2.7c5.9,1.4,10.5,3.5,13.9,6.4c3.4,2.8,5.8,6.4,7.2,10.6c1.5,4.2,2.3,9.2,2.4,14.8
			c0.1,1.9-0.1,13.7-0.2,15.4c-0.5,11.2-3.1,19.3-8,24.2S780.4,178.1,768.9,178.1L768.9,178.1z"/>
		<path class="st1" d="M813.4,176.5V39.4h22.2v137.1H813.4z"/>
		<path class="st1" d="M852,176.5V39.4h31.6c11.6,0,20,2.5,25.2,7.5s7.9,13.2,8.1,24.6c0.2,8.7,0.3,16.9,0.3,24.7
			c0.1,7.8,0.1,15.6,0,23.4c-0.1,7.8-0.2,16-0.3,24.7c-0.2,11.5-2.9,19.7-8.1,24.7c-5.2,5-13.6,7.5-25.3,7.5L852,176.5L852,176.5z
			 M874.2,157h9.3c3.7,0,6.5-0.9,8.3-2.6c1.9-1.7,2.8-4.2,2.9-7.5c0.2-6.6,0.3-13.1,0.4-19.6c0.1-6.5,0.1-13,0.1-19.5
			c0-6.5,0-13-0.1-19.5c-0.1-6.5-0.2-13-0.4-19.4c-0.1-3.3-1-5.7-2.9-7.4c-1.9-1.7-4.6-2.5-8.3-2.5h-9.4L874.2,157L874.2,157z"/>
		<path class="st1" d="M593.4,177.3l17.8-136.4h35.5l17.8,136.4H642l-3.1-31.2h-19.8l-3.1,31.2L593.4,177.3L593.4,177.3z
			 M621.1,126.6h15.9l-6.4-57.3h-2.9L621.1,126.6z"/>
		<path class="st1" d="M361.2,114.5c-12.7-0.4-21.9-3.3-27.4-9.1s-8.2-15.2-8.2-28.2s2.7-22.4,8.2-28.1c5.5-5.7,14.6-8.2,27.4-9
			c15.3-0.9,55.3-0.8,68.9,0c12.7,0.7,21.9,3.3,27.4,9s8.3,15,8.3,28.1s-2.8,22.4-8.3,28.2c-5.5,5.8-14.7,8.3-27.4,9.1
			C411.8,115.6,382,115.1,361.2,114.5z M434.7,89.3c3.5-0.1,6-1.2,7.8-3.2c1.8-2,2.6-5,2.6-8.9c0-3.9-0.9-6.9-2.6-8.9
			c-1.7-2-4.4-2.9-7.8-3c-12.9-0.5-63.4-0.5-78.1,0c-3.4,0.1-6,1.1-7.8,3.1s-2.6,4.9-2.6,8.8c0,3.9,0.9,6.9,2.6,8.9
			c1.8,2,4.4,3.1,7.8,3.2C372.5,89.8,418.6,89.8,434.7,89.3L434.7,89.3z"/>
	</g>
</g>
</svg>
