<?xml version="1.0" encoding="UTF-8"?>
<svg id="marcas" xmlns="http://www.w3.org/2000/svg" viewBox="0 0 1190.55 841.89">
  <defs>
    <style>
      .cls-1 {
        fill: #575756;
      }

      .cls-1, .cls-2 {
        stroke-width: 0px;
      }

      .cls-2 {
        fill: #356d9a;
      }
    </style>
  </defs>
  <g>
    <path class="cls-1" d="M493.05,448.52v-98.27h-17.41v-16.33h53.36v16.33h-17.48v98.27h-18.48Z"/>
    <path class="cls-1" d="M562.95,394.42c-9.41-.04-16.13-2.51-20.16-6.66-4.04-4.16-6.06-11.03-6.06-20.63v-33.22h17.26l1.48,33.22c0,2.96.59,5.16,1.77,6.59,1.18,1.43,2.95,2.2,5.32,2.22,7.24.06,28.03.39,34.73,0,2.32-.13,4.06-.81,5.22-2.29,1.16-1.48,1.74-3.65,1.74-6.52l1.48-33.22h17.26v33.22c0,9.6-2.01,16.47-6.02,20.63-4.01,4.15-10.7,6.55-20.06,6.66-6.95.08-26.55.03-33.98,0Z"/>
    <path class="cls-1" d="M633.39,448.52v-114.6h45.27v16.33h-26.72v31.95h25.28v16.33h-25.28v49.99h-18.55Z"/>
    <path class="cls-1" d="M686.49,448.52v-114.6h18.55v98.27h26.86v16.33h-45.41Z"/>
    <path class="cls-1" d="M740,448.52v-114.6h45.27v16.33h-26.72v31.95h25.28v16.33h-25.28v33.66h26.72v16.33h-45.27Z"/>
    <path class="cls-1" d="M820.66,449.81c-9.5,0-16.28-2.03-20.34-6.09-4.06-4.06-6.3-10.79-6.73-20.2-.05-1.86.02-12.5.5-17.62h17.41c-.19,3.68-.24,17.88,0,20.99.24,2.58,1.08,4.52,2.54,5.84,1.46,1.31,3.66,1.97,6.63,1.97s5.04-.66,6.38-1.97c1.34-1.31,2.12-3.26,2.36-5.84.19-1.91.19-14.3,0-16.26-.14-2.39-.73-4.49-1.75-6.3-1.03-1.81-2.73-3.03-5.12-3.65l-10.67-2.72c-4.63-1.19-8.28-2.93-10.96-5.2-2.67-2.27-4.6-5.12-5.77-8.56-1.17-3.44-1.82-7.5-1.97-12.17-.05-2.34-.05-11.11,0-13.25.24-6.26,1.28-11.31,3.12-15.15,1.84-3.84,4.73-6.64,8.67-8.38,3.94-1.74,9.18-2.62,15.72-2.62,9.22,0,15.89,2.02,20.02,6.06,4.13,4.03,6.39,10.73,6.77,20.09.1,2.19-.07,14.37-.21,17.33h-17.76c.14-3.44.29-17.26.14-20.7-.1-2.53-.92-4.44-2.47-5.73-1.55-1.29-3.71-1.94-6.48-1.94-2.96,0-5.13.65-6.52,1.94-1.39,1.29-2.22,3.2-2.51,5.73-.24,2.77-.24,13.85,0,16.62.24,2.48.87,4.58,1.9,6.3,1.03,1.72,2.83,2.89,5.41,3.51l9.38,2.22c4.92,1.19,8.79,2.97,11.6,5.34,2.82,2.36,4.84,5.31,6.05,8.85,1.22,3.53,1.9,7.66,2.04,12.39.05,1.57-.05,11.41-.14,12.89-.38,9.41-2.62,16.14-6.7,20.2-4.08,4.06-10.92,6.09-20.52,6.09Z"/>
    <path class="cls-1" d="M852.48,448.41l14.94-114.37h29.74l14.94,114.37h-18.94l-2.58-26.16h-16.59l-2.57,26.16h-18.95ZM875.64,405.95h13.29l-5.39-48.08h-2.42l-5.49,48.08Z"/>
  </g>
  <g>
    <path class="cls-1" d="M751.84,508.94c-1.15,0-2.08-.16-2.78-.49s-1.21-.85-1.53-1.56c-.33-.71-.51-1.64-.54-2.78-.04-1.48-.06-2.99-.08-4.52-.02-1.52-.03-3.05-.03-4.57s0-3.05.03-4.57c.02-1.52.04-3.02.08-4.51.03-1.19.22-2.14.55-2.86.33-.72.85-1.24,1.54-1.58.7-.33,1.61-.5,2.74-.5,1.61,0,2.79.38,3.53,1.12.74.75,1.16,1.97,1.23,3.67.03.83.05,1.67.05,2.53s-.02,1.7-.05,2.55h-2.62c.03-.9.05-1.82.05-2.76s-.02-1.84-.05-2.73c-.04-.74-.23-1.29-.57-1.64-.35-.35-.87-.52-1.57-.52-.74,0-1.29.17-1.64.52-.35.35-.54.89-.56,1.64-.05,1.6-.08,3.19-.09,4.79-.02,1.59-.03,3.19-.03,4.77s0,3.18.03,4.78c.02,1.6.05,3.19.09,4.78.02.75.21,1.31.56,1.65.35.35.9.52,1.65.52s1.3-.18,1.68-.52.58-.9.62-1.65c.01-.57.02-1.15.03-1.75,0-.59,0-1.19,0-1.78,0-.59-.01-1.17-.03-1.75h-2.23v-2.35h4.8c.03.89.05,1.93.04,3.13,0,1.19-.02,2.56-.04,4.09-.08,1.72-.49,2.96-1.24,3.71s-1.96,1.12-3.62,1.12Z"/>
    <path class="cls-1" d="M761.78,508.68v-27.41h4.51c1.67,0,2.88.37,3.63,1.1s1.17,1.94,1.23,3.61c.05.98.07,1.9.08,2.75,0,.85,0,1.68,0,2.48,0,.8-.03,1.61-.08,2.43-.04,1.15-.24,2.08-.61,2.78-.37.7-.94,1.2-1.71,1.5l2.83,10.76h-2.81l-2.54-10.31h-1.9v10.31h-2.64ZM764.42,495.98h1.83c.77,0,1.32-.18,1.68-.54.35-.36.55-.92.58-1.69.03-.86.06-1.73.07-2.61s.01-1.77,0-2.66-.03-1.77-.07-2.62c-.04-.77-.23-1.33-.57-1.69-.35-.36-.9-.54-1.65-.54h-1.87v12.35Z"/>
    <path class="cls-1" d="M780.91,508.94c-1.71,0-2.94-.37-3.68-1.1-.74-.74-1.13-1.96-1.15-3.66-.05-3.82-.07-7.63-.07-11.46s.02-7.64.07-11.45h2.64c-.02,2.53-.04,5.1-.06,7.73-.02,2.63-.02,5.25,0,7.86.01,2.61.03,5.2.05,7.75,0,.71.18,1.23.55,1.58.37.34.92.52,1.66.52s1.31-.17,1.65-.52c.35-.34.52-.87.52-1.58.02-2.56.04-5.14.04-7.75,0-2.61,0-5.23,0-7.86,0-2.63-.02-5.2-.04-7.73h2.62c.05,3.81.07,7.62.07,11.45s-.02,7.65-.07,11.46c-.02,1.7-.4,2.92-1.15,3.66-.74.74-1.96,1.1-3.65,1.1Z"/>
    <path class="cls-1" d="M791.04,508.68v-27.41h4.51c1.67,0,2.88.37,3.63,1.1s1.17,1.94,1.23,3.61c.05,1.46.07,2.77.07,3.93s-.02,2.35-.07,3.57c-.07,1.7-.48,2.92-1.24,3.65-.76.73-1.98,1.1-3.66,1.1h-1.83v10.45h-2.64ZM793.68,495.85h1.83c.77,0,1.32-.18,1.68-.54.35-.36.55-.93.58-1.7.03-.85.06-1.7.07-2.56s.01-1.73,0-2.59c-.01-.87-.03-1.73-.07-2.59-.04-.77-.23-1.33-.57-1.69-.35-.36-.9-.54-1.65-.54h-1.87v12.22Z"/>
    <path class="cls-1" d="M809.9,508.94c-1.71,0-2.94-.37-3.69-1.1-.75-.74-1.14-1.96-1.17-3.66-.04-1.56-.06-3.11-.08-4.63-.02-1.52-.03-3.04-.03-4.56s0-3.03.03-4.56c.02-1.52.04-3.08.08-4.65.03-1.7.42-2.92,1.17-3.66s1.98-1.11,3.69-1.11,2.93.37,3.67,1.11c.75.74,1.14,1.95,1.17,3.66.02,1.59.04,3.14.06,4.67.02,1.53.03,3.04.03,4.55s0,3.02-.03,4.55c-.02,1.53-.04,3.07-.06,4.63-.04,1.7-.43,2.92-1.17,3.66-.75.74-1.97,1.1-3.67,1.1ZM809.9,506.69c.78,0,1.33-.16,1.68-.49.34-.33.52-.86.53-1.6.05-1.63.08-3.25.09-4.87.02-1.61.03-3.22.03-4.83s0-3.21-.03-4.81-.05-3.17-.08-4.74c-.01-.76-.19-1.31-.54-1.64-.35-.32-.9-.49-1.67-.49s-1.32.16-1.67.49c-.35.33-.54.87-.56,1.64-.05,1.57-.08,3.14-.1,4.74-.02,1.59-.03,3.19-.03,4.81,0,1.61.02,3.22.04,4.83.02,1.61.05,3.23.09,4.87.02.74.21,1.28.56,1.6.35.33.9.49,1.67.49Z"/>
    <path class="cls-1" d="M829.36,508.68v-27.41h4.39c1.67,0,2.89.37,3.67,1.1.78.73,1.17,1.94,1.2,3.61.01,1.04.02,1.95.02,2.73s0,1.54-.02,2.29c-.06.98-.26,1.76-.6,2.32-.34.56-.87.97-1.59,1.22v.67c.75.25,1.31.66,1.65,1.23.35.57.54,1.36.57,2.37.01.92.02,1.78.02,2.57s0,1.65-.02,2.59c-.07,1.67-.48,2.87-1.23,3.61-.75.74-1.98,1.11-3.67,1.11h-4.39ZM832,493.67h1.71c.76,0,1.33-.22,1.7-.67.37-.44.55-1.14.56-2.07.03-.89.05-1.74.05-2.54s-.02-1.64-.05-2.54c-.01-.77-.2-1.33-.57-1.69s-.92-.54-1.65-.54h-1.75v10.04ZM832,506.32h1.75c.75,0,1.31-.2,1.68-.58.37-.39.56-.99.58-1.8.01-.9.02-1.74.02-2.52s0-1.61-.02-2.5c-.02-1.04-.22-1.78-.59-2.21-.37-.43-.97-.65-1.79-.65h-1.63v10.26Z"/>
    <path class="cls-1" d="M848.57,508.94c-1.71,0-2.94-.37-3.69-1.1-.75-.74-1.14-1.96-1.17-3.66-.04-1.56-.06-3.11-.08-4.63-.02-1.52-.03-3.04-.03-4.56s0-3.03.03-4.56c.02-1.52.04-3.08.08-4.65.03-1.7.42-2.92,1.17-3.66.75-.74,1.98-1.11,3.69-1.11s2.93.37,3.67,1.11c.75.74,1.14,1.95,1.17,3.66.02,1.59.04,3.14.06,4.67.02,1.53.03,3.04.03,4.55s0,3.02-.03,4.55c-.02,1.53-.04,3.07-.06,4.63-.04,1.7-.43,2.92-1.17,3.66-.75.74-1.97,1.1-3.67,1.1ZM848.57,506.69c.78,0,1.33-.16,1.68-.49.34-.33.52-.86.53-1.6.05-1.63.08-3.25.09-4.87.02-1.61.03-3.22.03-4.83s0-3.21-.03-4.81c-.02-1.59-.05-3.17-.08-4.74-.01-.76-.19-1.31-.54-1.64-.35-.32-.9-.49-1.67-.49s-1.32.16-1.67.49c-.35.33-.54.87-.56,1.64-.05,1.57-.08,3.14-.1,4.74-.02,1.59-.03,3.19-.03,4.81,0,1.61.02,3.22.04,4.83.02,1.61.05,3.23.09,4.87.02.74.21,1.28.56,1.6.35.33.9.49,1.67.49Z"/>
    <path class="cls-1" d="M858.81,508.68v-27.41h4.51c1.67,0,2.88.37,3.63,1.1.75.73,1.17,1.94,1.23,3.61.05.98.07,1.9.08,2.75,0,.85,0,1.68,0,2.48,0,.8-.03,1.61-.08,2.43-.04,1.15-.24,2.08-.61,2.78-.37.7-.94,1.2-1.71,1.5l2.83,10.76h-2.81l-2.54-10.31h-1.9v10.31h-2.64ZM861.45,495.98h1.83c.77,0,1.32-.18,1.68-.54.35-.36.55-.92.58-1.69.03-.86.06-1.73.07-2.61s.01-1.77,0-2.66-.03-1.77-.07-2.62c-.04-.77-.23-1.33-.57-1.69-.35-.36-.9-.54-1.65-.54h-1.87v12.35Z"/>
    <path class="cls-1" d="M873.36,508.68v-27.41h4.33l1.59,8.7,2.28,16.34h.79l-.46-15.09-.19-9.95h2.57v27.41h-4.49l-1.75-9.71-1.9-15.33h-.82l.43,14.77.19,10.28h-2.57Z"/>
    <path class="cls-1" d="M888.8,508.68l3.03-27.41h4.73l3.03,27.41h-2.69l-.7-7.66h-4.01l-.7,7.66h-2.69ZM892.44,498.62h3.51l-.55-5.98-.72-9.01h-.96l-.72,9.01-.56,5.98Z"/>
    <path class="cls-1" d="M905.53,508.68v-7.13l-3.92-20.29h2.71l1.34,7.59.87,7.88h.65l.86-7.88,1.35-7.59h2.71l-3.92,20.3v7.11h-2.64Z"/>
  </g>
  <path class="cls-2" d="M278.46,334.21v175.05h175.05v-175.05h-175.05ZM440.23,347.5v16.47c-42.58-2.89-85.23,6.08-123.9,26.52-8.56,4.53-16.76,9.54-24.59,14.99v-57.98h148.49ZM291.74,421.95c9.55-7.3,19.82-13.91,30.8-19.71,1.05-.56,2.12-1.08,3.17-1.62,21.09,27.77,32.61,60.9,33.36,95.36h-67.33v-74.03ZM372.36,495.98c-.73-36.44-12.59-71.5-34.38-101.14,28.05-12.15,57.49-17.99,86.59-17.99,5.23,0,10.45.2,15.65.57v118.56h-67.87Z"/>
</svg>