<?xml version="1.0" encoding="UTF-8"?>
<svg id="Capa_2" data-name="Capa 2" xmlns="http://www.w3.org/2000/svg" xmlns:xlink="http://www.w3.org/1999/xlink" viewBox="0 0 390.87 455.13">
  <defs>
    <style>
      .cls-1 {
        clip-path: url(#clippath-2);
      }

      .cls-2, .cls-3, .cls-4 {
        fill: none;
      }

      .cls-2, .cls-4 {
        stroke: #1d1d1b;
        stroke-miterlimit: 10;
      }

      .cls-5 {
        clip-path: url(#clippath-1);
      }

      .cls-6 {
        clip-path: url(#clippath);
      }

      .cls-7 {
        clip-path: url(#clippath-3);
      }

      .cls-4 {
        stroke-width: 1.42px;
      }
    </style>
    <clipPath id="clippath">
      <path class="cls-3" d="m390.16,178.02H.71v-89.04c109.17-119.23,283.38-116.14,389.45,0v89.04Z"/>
    </clipPath>
    <clipPath id="clippath-1">
      <path class="cls-3" d="m390.16,277.12H.71v89.04c109.17,119.23,283.38,116.14,389.45,0v-89.04Z"/>
    </clipPath>
    <clipPath id="clippath-2">
      <path class="cls-4" d="m390.16,178.02H.71v-89.04c109.17-119.23,283.38-116.14,389.45,0v89.04Z"/>
    </clipPath>
    <clipPath id="clippath-3">
      <path class="cls-4" d="m390.16,277.12H.71v89.04c109.17,119.23,283.38,116.14,389.45,0v-89.04Z"/>
    </clipPath>
  </defs>
  <g id="Capa_2-2" data-name="Capa 2">
    <g>
      <g class="cls-6">
        <g>
          <g>
            <line class="cls-2" x1="12.32" y1="178.02" x2="188.08" y2=".71"/>
            <line class="cls-2" x1="-17.2" y1="178.02" x2="158.55" y2=".71"/>
            <line class="cls-2" x1="-46.72" y1="178.02" x2="129.03" y2=".71"/>
            <line class="cls-2" x1="-76.25" y1="178.02" x2="99.51" y2=".71"/>
            <line class="cls-2" x1="41.5" y1="178.02" x2="217.25" y2=".71"/>
            <line class="cls-2" x1="70.68" y1="178.02" x2="246.43" y2=".71"/>
            <line class="cls-2" x1="99.85" y1="178.02" x2="275.61" y2=".71"/>
            <line class="cls-2" x1="129.03" y1="178.02" x2="304.79" y2=".71"/>
            <line class="cls-2" x1="158.21" y1="178.02" x2="333.96" y2=".71"/>
            <line class="cls-2" x1="187.39" y1="178.02" x2="363.14" y2=".71"/>
            <line class="cls-2" x1="216.56" y1="178.02" x2="392.32" y2=".71"/>
            <line class="cls-2" x1="245.74" y1="178.02" x2="421.5" y2=".71"/>
            <line class="cls-2" x1="274.92" y1="178.02" x2="450.67" y2=".71"/>
            <line class="cls-2" x1="304.1" y1="178.02" x2="479.85" y2=".71"/>
            <line class="cls-2" x1="333.27" y1="178.02" x2="509.03" y2=".71"/>
            <line class="cls-2" x1="362.45" y1="178.02" x2="538.21" y2=".71"/>
          </g>
          <line class="cls-2" x1="12.32" y1="178.02" x2="188.08" y2=".71"/>
          <line class="cls-2" x1="-17.2" y1="178.02" x2="158.55" y2=".71"/>
          <line class="cls-2" x1="-46.72" y1="178.02" x2="129.03" y2=".71"/>
          <line class="cls-2" x1="-76.25" y1="178.02" x2="99.51" y2=".71"/>
          <line class="cls-2" x1="41.5" y1="178.02" x2="217.25" y2=".71"/>
          <line class="cls-2" x1="70.68" y1="178.02" x2="246.43" y2=".71"/>
          <line class="cls-2" x1="99.85" y1="178.02" x2="275.61" y2=".71"/>
          <line class="cls-2" x1="129.03" y1="178.02" x2="304.79" y2=".71"/>
          <line class="cls-2" x1="158.21" y1="178.02" x2="333.96" y2=".71"/>
          <line class="cls-2" x1="187.39" y1="178.02" x2="363.14" y2=".71"/>
          <line class="cls-2" x1="216.56" y1="178.02" x2="392.32" y2=".71"/>
          <line class="cls-2" x1="245.74" y1="178.02" x2="421.5" y2=".71"/>
          <line class="cls-2" x1="274.92" y1="178.02" x2="450.67" y2=".71"/>
          <line class="cls-2" x1="304.1" y1="178.02" x2="479.85" y2=".71"/>
          <line class="cls-2" x1="333.27" y1="178.02" x2="509.03" y2=".71"/>
          <line class="cls-2" x1="362.45" y1="178.02" x2="538.21" y2=".71"/>
        </g>
      </g>
      <g class="cls-5">
        <g>
          <line class="cls-2" x1="-1.75" y1="454.42" x2="174.01" y2="277.12"/>
          <line class="cls-2" x1="-31.27" y1="454.42" x2="144.48" y2="277.12"/>
          <line class="cls-2" x1="-60.79" y1="454.42" x2="114.96" y2="277.12"/>
          <line class="cls-2" x1="-90.32" y1="454.42" x2="85.44" y2="277.12"/>
          <line class="cls-2" x1="-116.88" y1="454.42" x2="58.87" y2="277.12"/>
          <line class="cls-2" x1="-146.06" y1="454.42" x2="29.7" y2="277.12"/>
          <line class="cls-2" x1="27.43" y1="454.42" x2="203.18" y2="277.12"/>
          <line class="cls-2" x1="56.61" y1="454.42" x2="232.36" y2="277.12"/>
          <line class="cls-2" x1="85.78" y1="454.42" x2="261.54" y2="277.12"/>
          <line class="cls-2" x1="114.96" y1="454.42" x2="290.72" y2="277.12"/>
          <line class="cls-2" x1="144.14" y1="454.42" x2="319.89" y2="277.12"/>
          <line class="cls-2" x1="173.32" y1="454.42" x2="349.07" y2="277.12"/>
          <line class="cls-2" x1="202.49" y1="454.42" x2="378.25" y2="277.12"/>
          <line class="cls-2" x1="231.67" y1="454.42" x2="407.43" y2="277.12"/>
          <line class="cls-2" x1="260.85" y1="454.42" x2="436.6" y2="277.12"/>
          <line class="cls-2" x1="290.03" y1="454.42" x2="465.78" y2="277.12"/>
          <line class="cls-2" x1="319.2" y1="454.42" x2="494.96" y2="277.12"/>
          <line class="cls-2" x1="348.38" y1="454.42" x2="524.14" y2="277.12"/>
        </g>
      </g>
      <rect class="cls-4" x=".71" y="178.02" width="389.45" height="99.1"/>
      <g>
        <g class="cls-1">
          <g>
            <g>
              <line class="cls-2" x1="12.32" y1="178.02" x2="188.08" y2=".71"/>
              <line class="cls-2" x1="-17.2" y1="178.02" x2="158.55" y2=".71"/>
              <line class="cls-2" x1="-46.72" y1="178.02" x2="129.03" y2=".71"/>
              <line class="cls-2" x1="-76.25" y1="178.02" x2="99.51" y2=".71"/>
              <line class="cls-2" x1="41.5" y1="178.02" x2="217.25" y2=".71"/>
              <line class="cls-2" x1="70.68" y1="178.02" x2="246.43" y2=".71"/>
              <line class="cls-2" x1="99.85" y1="178.02" x2="275.61" y2=".71"/>
              <line class="cls-2" x1="129.03" y1="178.02" x2="304.79" y2=".71"/>
              <line class="cls-2" x1="158.21" y1="178.02" x2="333.96" y2=".71"/>
              <line class="cls-2" x1="187.39" y1="178.02" x2="363.14" y2=".71"/>
              <line class="cls-2" x1="216.56" y1="178.02" x2="392.32" y2=".71"/>
              <line class="cls-2" x1="245.74" y1="178.02" x2="421.5" y2=".71"/>
              <line class="cls-2" x1="274.92" y1="178.02" x2="450.67" y2=".71"/>
              <line class="cls-2" x1="304.1" y1="178.02" x2="479.85" y2=".71"/>
              <line class="cls-2" x1="333.27" y1="178.02" x2="509.03" y2=".71"/>
              <line class="cls-2" x1="362.45" y1="178.02" x2="538.21" y2=".71"/>
            </g>
            <line class="cls-2" x1="12.32" y1="178.02" x2="188.08" y2=".71"/>
            <line class="cls-2" x1="-17.2" y1="178.02" x2="158.55" y2=".71"/>
            <line class="cls-2" x1="-46.72" y1="178.02" x2="129.03" y2=".71"/>
            <line class="cls-2" x1="-76.25" y1="178.02" x2="99.51" y2=".71"/>
            <line class="cls-2" x1="41.5" y1="178.02" x2="217.25" y2=".71"/>
            <line class="cls-2" x1="70.68" y1="178.02" x2="246.43" y2=".71"/>
            <line class="cls-2" x1="99.85" y1="178.02" x2="275.61" y2=".71"/>
            <line class="cls-2" x1="129.03" y1="178.02" x2="304.79" y2=".71"/>
            <line class="cls-2" x1="158.21" y1="178.02" x2="333.96" y2=".71"/>
            <line class="cls-2" x1="187.39" y1="178.02" x2="363.14" y2=".71"/>
            <line class="cls-2" x1="216.56" y1="178.02" x2="392.32" y2=".71"/>
            <line class="cls-2" x1="245.74" y1="178.02" x2="421.5" y2=".71"/>
            <line class="cls-2" x1="274.92" y1="178.02" x2="450.67" y2=".71"/>
            <line class="cls-2" x1="304.1" y1="178.02" x2="479.85" y2=".71"/>
            <line class="cls-2" x1="333.27" y1="178.02" x2="509.03" y2=".71"/>
            <line class="cls-2" x1="362.45" y1="178.02" x2="538.21" y2=".71"/>
          </g>
        </g>
        <path class="cls-4" d="m390.16,178.02H.71v-89.04c109.17-119.23,283.38-116.14,389.45,0v89.04Z"/>
      </g>
      <g>
        <g class="cls-7">
          <g>
            <line class="cls-2" x1="-1.75" y1="454.42" x2="174.01" y2="277.12"/>
            <line class="cls-2" x1="-31.27" y1="454.42" x2="144.48" y2="277.12"/>
            <line class="cls-2" x1="-60.79" y1="454.42" x2="114.96" y2="277.12"/>
            <line class="cls-2" x1="-90.32" y1="454.42" x2="85.44" y2="277.12"/>
            <line class="cls-2" x1="-116.88" y1="454.42" x2="58.87" y2="277.12"/>
            <line class="cls-2" x1="-146.06" y1="454.42" x2="29.7" y2="277.12"/>
            <line class="cls-2" x1="27.43" y1="454.42" x2="203.18" y2="277.12"/>
            <line class="cls-2" x1="56.61" y1="454.42" x2="232.36" y2="277.12"/>
            <line class="cls-2" x1="85.78" y1="454.42" x2="261.54" y2="277.12"/>
            <line class="cls-2" x1="114.96" y1="454.42" x2="290.72" y2="277.12"/>
            <line class="cls-2" x1="144.14" y1="454.42" x2="319.89" y2="277.12"/>
            <line class="cls-2" x1="173.32" y1="454.42" x2="349.07" y2="277.12"/>
            <line class="cls-2" x1="202.49" y1="454.42" x2="378.25" y2="277.12"/>
            <line class="cls-2" x1="231.67" y1="454.42" x2="407.43" y2="277.12"/>
            <line class="cls-2" x1="260.85" y1="454.42" x2="436.6" y2="277.12"/>
            <line class="cls-2" x1="290.03" y1="454.42" x2="465.78" y2="277.12"/>
            <line class="cls-2" x1="319.2" y1="454.42" x2="494.96" y2="277.12"/>
            <line class="cls-2" x1="348.38" y1="454.42" x2="524.14" y2="277.12"/>
          </g>
        </g>
        <path class="cls-4" d="m390.16,277.12H.71v89.04c109.17,119.23,283.38,116.14,389.45,0v-89.04Z"/>
      </g>
    </g>
  </g>
</svg>