<?xml version="1.0" encoding="UTF-8"?>
<svg id="Capa_2" data-name="Capa 2" xmlns="http://www.w3.org/2000/svg" xmlns:xlink="http://www.w3.org/1999/xlink" viewBox="0 0 310.67 355.18">
  <defs>
    <style>
      .cls-1, .cls-2, .cls-3 {
        fill: none;
      }

      .cls-1, .cls-3 {
        stroke: #1d1d1b;
        stroke-miterlimit: 10;
      }

      .cls-4 {
        clip-path: url(#clippath);
      }

      .cls-3 {
        stroke-width: 1.42px;
      }
    </style>
    <clipPath id="clippath">
      <path class="cls-2" d="m289.62.74s-6.35-1.27-20.76,13.13c-14.4,14.4-47.02,55.07-113.53,55.07S56.2,28.27,41.8,13.87,21.04.74,21.04.74H.71v353.73h20.76c12.29,0,20.33-12.29,20.33-12.29,47.02-61.43,113.53-56.77,113.53-56.77,0,0,66.51-4.66,113.53,56.77,0,0,8.05,12.29,20.33,12.29h20.76V.74h-20.33Z"/>
    </clipPath>
  </defs>
  <g id="Capa_2-2" data-name="Capa 2">
    <g>
      <g class="cls-4">
        <path class="cls-1" d="m304.57.71l-130.07,129.66m0,0L304.57.71m-28,0l-130.07,129.66M248.56.71L118.49,130.37M220.56.71L90.49,130.37M192.56.71L62.49,130.37M164.56.71L34.48,130.37m-28,0L136.56.71m-28,0L-21.52,130.37M80.56.71L-49.52,130.37M52.55.71L-77.52,130.37M24.55.71L-105.52,130.37M331.66.71l-130.07,129.66M358.76.71l-130.07,129.66M385.86.71l-130.07,129.66M412.96.71l-130.07,129.66m21.68,93.2l-130.07,129.66m130.07-129.66l-130.07,129.66m102.07-129.66l-130.07,129.66m-28,0l130.07-129.66m-28,0l-130.07,129.66m-28,0l130.07-129.66m-28,0L34.48,353.23m102.07-129.66L6.48,353.23m102.07-129.66L-21.52,353.23m102.07-129.66L-49.52,353.23M52.55,223.57l-130.07,129.66m-28,0L24.55,223.57m307.11,0l-130.07,129.66m157.17-129.66l-130.07,129.66m157.17-129.66l-130.07,129.66m27.1,0l130.07-129.66"/>
      </g>
      <path class="cls-3" d="m289.62.74s-6.35-1.27-20.76,13.13c-14.4,14.4-47.02,55.07-113.53,55.07S56.2,28.27,41.8,13.87,21.04.74,21.04.74H.71v353.73h20.76c12.29,0,20.33-12.29,20.33-12.29,47.02-61.43,113.53-56.77,113.53-56.77,0,0,66.51-4.66,113.53,56.77,0,0,8.05,12.29,20.33,12.29h20.76V.74h-20.33Z"/>
      <polygon class="cls-3" points="155.33 130.37 .71 130.37 .71 223.57 155.33 223.57 309.96 223.57 309.96 130.37 155.33 130.37"/>
    </g>
  </g>
</svg>